<?xml version="1.0" encoding="utf-8"?>
<!-- Generator: Adobe Illustrator 25.0.0, SVG Export Plug-In . SVG Version: 6.00 Build 0)  -->
<svg version="1.1" id="图层_1" xmlns="http://www.w3.org/2000/svg" xmlns:xlink="http://www.w3.org/1999/xlink" x="0px" y="0px"
	 viewBox="0 0 765 340" style="enable-background:new 0 0 798.89 352.42;" xml:space="preserve">
<style type="text/css">
	.st0{fill:#898989;}
	.st1{opacity:0.5;}
	.st2{fill:none;}
</style>
<path d="M174.24,96.44h24.77c0.64,0,1.24,0.3,1.62,0.82l45.1,61.08c0.33,0.44,0.98,0.45,1.32,0.01l48.6-63.05h23.89
	c1.23,0,1.92,1.41,1.17,2.39l-61.11,79.01c-0.29,0.37-0.73,0.59-1.2,0.59h-24.98c-0.27,0-0.52-0.12-0.68-0.34L173.3,98.33
	C172.71,97.55,173.26,96.44,174.24,96.44z"/>
<path d="M506.98,96.06v59.81c0,0.65-0.74,1.02-1.27,0.64L425.6,96.88c-0.39-0.29-0.86-0.45-1.35-0.45h-27.8
	c-1.74,0-3.16,1.41-3.16,3.16l-0.15,42.87c0,0.4-0.51,0.58-0.76,0.26l-37.23-46.71c-0.36-0.45-0.9-0.72-1.48-0.72h-22.31
	c-0.53,0-1.03,0.24-1.36,0.66l-63.87,79.71c-0.52,0.65-0.05,1.61,0.78,1.61H293l15.05-20.85c0.43-0.59,1.11-0.94,1.84-0.94h63.52
	c0.79,0,1.54,0.38,2.01,1.01l14.36,19.43c0.63,0.85,1.62,1.35,2.68,1.35h25.19c1.17,0,2.12-0.95,2.12-2.12v-60.03l83.94,62.15h28.5
	c0.72,0,1.31-0.59,1.31-1.31V96.06H506.98z M365,143.68h-45.46c-0.47,0-0.74-0.54-0.45-0.91L340.94,114
	c0.22-0.29,0.66-0.3,0.89-0.02l23.6,28.77C365.74,143.12,365.48,143.68,365,143.68z"/>
<path d="M551.81,114.83c0,0,24.03-0.82,30.68-4.34c6.65-3.52,3.39-8.02-2.22-7.11c0,0,5.09-6.36,31.5-10.17c0,0,1.76-0.15,3.62-2.2
	c1.86-2.05,6.36-8.33,11.05-11.3c0,0-4.7,10.08,1.76,13.21s41.02-8.32,55.04-15.68c0,0-2.41,7.17-38.87,19.96
	c0,0-0.33,0.86,1.29,1.01s39.57,6.46,47.89,35.61c8.32,29.15-24.75,57.91-24.75,57.91s17.22-22.7,11.25-41.48
	s-21.23-33.16-50.58-37.76s-62.02,9.1-63.59,9.2C564.33,121.78,557.45,117.48,551.81,114.83z"/>
<path class="st1" d="M673.71,148.27c0.07-0.3,0.08-0.47,0.08-0.47C673.77,147.96,673.74,148.11,673.71,148.27z"/>
<path class="st2" d="M300.58,216.64c-0.24-10.14-7.39-11.89-13.12-12.13c-5.44-0.22-17.43,0-17.43,0h-0.19v23.62h19.75
	C289.59,228.14,301.43,227.02,300.58,216.64z"/>
<path class="st2" d="M356,255.41h19.2c5.47-4.84,9.13-13.69,9.13-23.82c0-15.32-8.39-27.73-18.73-27.73
	c-10.35,0-18.73,12.42-18.73,27.73C346.86,241.71,350.53,250.56,356,255.41z"/>
<path class="st2" d="M600.04,199.58c-1.57-2.15-16.04,1.96-16.04,1.96c7.96,3.91,6.26,4.89,10.11,5.35
	C597.95,207.35,601.6,201.74,600.04,199.58z"/>
<path class="st2" d="M274.52,255.41h22.73l-16.73-23.49h-10.95c0,0,0,13.07,0,17.31C269.57,252.54,273.03,254.65,274.52,255.41z"/>
<path class="st2" d="M220.81,216.22c0.08-8.91-6.65-11.27-12.89-11.56c-6.25-0.28-12.97,0-12.97,0v25.77h15.63
	C210.58,230.43,221.32,229.76,220.81,216.22z"/>
<path d="M712.21,53.74H67.62c-3.19,0-5.78,2.59-5.78,5.78v10.8c0,3.19,2.59,5.78,5.78,5.78h22.26c2.51,0,4.55,2.04,4.55,4.55v170.27
	c0,2.93-2.38,5.31-5.31,5.31H68.22c-3.38,0-6.13,2.74-6.13,6.13v10.23c0,3.38,2.74,6.13,6.13,6.13H174.2c3.38,0,6.13-2.74,6.13-6.13
	v-8.51c1.53-2.45,3.35-3.71,3.35-3.71h11.27v0.00h494.18v-5.24h-30.38c-2.44-2.05-3.21-4.59-3.21-4.59v-45.55
	c23.67-1.76,24.06,26.87,24.06,26.87h3.91v-29.94h-69v29.94h3.92c0,0,0.39-28.63,24.06-26.87v45.55c0,0-0.77,2.55-3.21,4.59h-42.01
	c2.72-2.29,8.22-7.96,9.48-17.15h-4.24c0,0-1.9,10.81-12.11,17.15h-22.37c-3.01-2.63-7.45-9.05-7.45-24.13
	c0-22.83,9.78-27.39,16.96-27.39s20.74,7.7,24.26,26.61h3.65l-1.04-27.39c0,0,60.55-1.95,69.31-54.84
	c-0.64,2.74-6.22,17.09-53.53,29.65c-52.57,13.96-59.74,18.01-70.83,33.01c-10.45,14.14-7.45,34.53,6.47,44.47H532.5v-20.19h-2.98
	c0,14.87-8.93,19.02-14.36,20.19h-19.47v-21.32c0,0,15.65-2.28,15.65,16.83h3.59v-38.84h-3.52c0,0,0.54,18.15-15.75,18.15v-25.14
	c2.68,0,14.06,0,15.57,0c1.71,0,18.29,0.39,18.29,20.64h2.98v-24.41h-36.85h-0.58h-25.54v3.42c0,0,11.93,0.26,11.93,6
	s0,39.91,0,39.91s-0.74,2.89-2.82,4.76h-31.6c3.92-2.59,5.86-6.85,5.64-13.17v-32.47c-0.42-3.78,6.99-5.56,12.46-5.36v-3.15h-40.55
	v3.15c6.09-0.21,14.96,1.58,14.54,5.36l0.05,40.74c-0.11,2.96-1.36,4.29-3.41,4.89h-15.94c4.53-0.45,8.07-4.26,8.07-8.91
	c0-4.95-4.02-8.97-8.97-8.97s-8.97,4.02-8.97,8.97c0,4.44,3.23,8.12,7.47,8.83c0.05,0.03,0.1,0.05,0.14,0.07h-29.81
	c8.04-5.76,13.18-14.57,13.18-24.45c0-17.34-15.83-31.4-35.36-31.4s-35.36,14.06-35.36,31.4c0,9.88,5.14,18.7,13.18,24.45h-28.28
	c-3-2.96-10.87-11.17-13.23-17.87c0,0-8.74,0-15.07-5.62h2.06c0,0,27.22-0.06,27.41-14.18c0.19-14.12-14.02-16.77-22.17-17.05
	c-8.15-0.28-49.55,0-49.55,0s-1.34,0.62-0.98,3.69c0,0,10.17-0.88,11.49,5.56c0.32,6.13,0,39.47,0,39.47s-0.25,4.64-3.83,6h-52.45
	c-2.51-1.55-3.4-4.89-3.4-4.89V234.6h20.37c0,0,19.52-2.27,20.37-13.99c2.65-18.82-22.36-20.08-22.36-20.08h-44.27v4.04
	c11.37-0.25,11.43,6.54,11.43,6.54v39.32c-0.44,2.7-3.48,4.67-5.97,5.87c-0.26-0.03-0.52-0.06-0.78-0.06h-19.89
	c-2.93,0-5.31-2.38-5.31-5.31V80.65c0-2.51,2.04-4.55,4.55-4.55h558.66c3.19,0,5.78-2.59,5.78-5.78v-10.8
	C717.99,56.33,715.4,53.74,712.21,53.74z M600.04,199.58c1.57,2.15-2.09,7.76-5.93,7.3c-3.85-0.46-2.15-1.43-10.11-5.35
	C583.99,201.54,598.47,197.43,600.04,199.58z M365.6,203.86c10.35,0,18.73,12.42,18.73,27.73c0,10.12-3.66,18.97-9.13,23.82H356
	c-5.47-4.84-9.13-13.69-9.13-23.82C346.86,216.27,355.25,203.86,365.6,203.86z M269.84,204.52h0.19c0,0,11.99-0.22,17.43,0
	c5.73,0.24,12.88,1.99,13.12,12.13c0.85,10.37-10.99,11.49-10.99,11.49h-19.75V204.52z M269.57,231.91h10.95l16.73,23.49h-22.73
	c-1.49-0.75-4.95-2.86-4.95-6.19C269.57,244.98,269.57,231.91,269.57,231.91z M194.95,204.66c0,0,6.73-0.28,12.97,0
	c6.25,0.28,12.97,2.65,12.89,11.56c0.51,13.55-10.23,14.21-10.23,14.21h-15.63V204.66z"/>
</svg>
